<svg xmlns="http://www.w3.org/2000/svg" xmlns:xlink="http://www.w3.org/1999/xlink" width="500" zoomAndPan="magnify" viewBox="0 0 375 374.999991" height="500" preserveAspectRatio="xMidYMid meet" version="1.0"><defs><g/><clipPath id="91bc9e7216"><path d="M 109.238281 105.675781 L 265.988281 105.675781 L 265.988281 262.425781 L 109.238281 262.425781 Z M 109.238281 105.675781 " clip-rule="nonzero"/></clipPath></defs><g clip-path="url(#91bc9e7216)"><path fill="#4e57d4" d="M 187.5 168.957031 C 179.226562 168.957031 172.515625 175.664062 172.515625 183.941406 C 172.515625 192.21875 179.226562 198.925781 187.5 198.925781 C 195.777344 198.925781 202.488281 192.21875 202.488281 183.941406 C 202.488281 175.664062 195.777344 168.957031 187.5 168.957031 Z M 206.144531 183.941406 C 206.144531 194.222656 197.78125 202.585938 187.5 202.585938 C 177.222656 202.585938 168.859375 194.222656 168.859375 183.941406 C 168.859375 173.660156 177.222656 165.296875 187.5 165.296875 C 197.78125 165.296875 206.144531 173.660156 206.144531 183.941406 Z M 201.988281 198.425781 C 205.855469 194.558594 207.988281 189.414062 207.988281 183.941406 C 207.988281 178.46875 205.855469 173.324219 201.988281 169.457031 C 198.117188 165.585938 192.972656 163.457031 187.5 163.457031 C 182.03125 163.457031 176.886719 165.585938 173.015625 169.457031 C 169.148438 173.324219 167.015625 178.46875 167.015625 183.941406 C 167.015625 189.414062 169.148438 194.558594 173.015625 198.425781 C 176.886719 202.296875 182.03125 204.425781 187.5 204.425781 C 192.972656 204.425781 198.117188 202.296875 201.988281 198.425781 Z M 214.621094 141.136719 C 205.21875 144.8125 201.890625 154.117188 201.15625 163.824219 L 201.003906 165.933594 L 202.859375 164.910156 C 209.765625 161.117188 215.488281 155.703125 218.914062 149.085938 C 222.683594 141.851562 224.8125 132.433594 223.285156 124.558594 C 210.578125 127.617188 195.238281 139.335938 197.25 160.015625 C 198.292969 146.050781 205.800781 133.882812 219.765625 129.976562 C 220.789062 136.648438 219.628906 142.742188 216.882812 148.023438 C 213.980469 153.59375 209.339844 158.273438 203.710938 161.757812 C 204.328125 157.945312 205.722656 153.921875 207.464844 150.421875 C 209.648438 145.953125 212.355469 142.375 214.621094 141.136719 Z M 230.324219 211.058594 C 226.652344 201.660156 217.328125 198.332031 207.636719 197.597656 L 205.511719 197.441406 L 206.535156 199.296875 C 210.324219 206.207031 215.742188 211.929688 222.355469 215.351562 C 229.609375 219.125 239.011719 221.253906 246.902344 219.726562 C 243.847656 207.015625 232.125 191.679688 211.449219 193.691406 C 225.414062 194.734375 237.578125 202.238281 241.488281 216.203125 C 234.8125 217.230469 228.699219 216.070312 223.421875 213.324219 C 217.851562 210.421875 213.1875 205.777344 209.6875 200.152344 C 213.515625 200.769531 217.519531 202.160156 221.039062 203.902344 C 225.492188 206.089844 229.070312 208.796875 230.324219 211.058594 Z M 160.402344 226.765625 C 169.785156 223.089844 173.128906 213.765625 173.847656 204.078125 L 174.019531 201.949219 L 172.164062 202.972656 C 165.257812 206.765625 159.53125 212.183594 156.089844 218.796875 C 152.335938 226.050781 150.191406 235.449219 151.71875 243.339844 C 164.425781 240.285156 179.765625 228.5625 177.773438 207.886719 C 176.707031 221.851562 169.222656 234.019531 155.257812 237.925781 C 154.214844 231.253906 155.394531 225.140625 158.121094 219.859375 C 161.023438 214.289062 165.664062 209.628906 171.292969 206.128906 C 170.695312 209.957031 169.300781 213.960938 167.558594 217.480469 C 165.355469 221.929688 162.667969 225.507812 160.402344 226.765625 Z M 144.695312 156.84375 C 148.371094 166.222656 157.675781 169.570312 167.386719 170.304688 L 169.492188 170.460938 L 168.46875 168.605469 C 164.679688 161.699219 159.261719 155.972656 152.648438 152.53125 C 145.414062 148.777344 135.992188 146.628906 128.121094 148.15625 C 131.175781 160.867188 142.898438 176.203125 163.574219 174.210938 C 149.609375 173.148438 137.445312 165.664062 133.535156 151.699219 C 140.210938 150.652344 146.300781 151.832031 151.582031 154.5625 C 157.152344 157.460938 161.835938 162.105469 165.316406 167.730469 C 161.503906 167.132812 157.484375 165.742188 153.980469 164 C 149.515625 161.792969 145.933594 159.105469 144.695312 156.84375 Z M 232.394531 160.421875 C 222.414062 158.914062 214.871094 165.316406 209.398438 173.339844 L 208.199219 175.101562 L 210.304688 175.140625 C 218.199219 175.3125 225.855469 173.476562 232.144531 169.472656 C 239.011719 165.082031 245.566406 158.003906 248.199219 150.402344 C 235.664062 146.6875 216.515625 149.183594 207.90625 168.082031 C 215.796875 156.515625 228.371094 149.726562 242.433594 153.324219 C 239.996094 159.628906 235.914062 164.328125 230.90625 167.519531 C 225.605469 170.902344 219.261719 172.625 212.628906 172.839844 C 215.066406 169.839844 218.292969 167.054688 221.542969 164.890625 C 225.683594 162.125 229.804688 160.363281 232.394531 160.421875 Z M 211.042969 228.835938 C 212.550781 218.855469 206.148438 211.3125 198.101562 205.835938 L 196.359375 204.636719 L 196.300781 206.746094 C 196.148438 214.636719 197.964844 222.296875 201.988281 228.582031 C 206.378906 235.449219 213.457031 242.007812 221.039062 244.636719 C 224.753906 232.101562 222.277344 212.953125 203.363281 204.347656 C 214.929688 212.238281 221.71875 224.8125 218.121094 238.875 C 211.816406 236.4375 207.132812 232.355469 203.921875 227.347656 C 200.539062 222.046875 198.816406 215.703125 198.625 209.066406 C 201.621094 211.503906 204.40625 214.734375 206.574219 217.984375 C 209.320312 222.125 211.078125 226.242188 211.042969 228.835938 Z M 142.628906 207.480469 C 152.589844 208.992188 160.132812 202.585938 165.625 194.542969 L 166.824219 192.800781 L 164.695312 192.761719 C 156.824219 192.585938 149.164062 194.40625 142.878906 198.429688 C 135.992188 202.820312 129.4375 209.898438 126.824219 217.480469 C 139.359375 221.195312 158.507812 218.71875 167.09375 199.800781 C 159.203125 211.367188 146.632812 218.15625 132.589844 214.558594 C 135.027344 208.253906 139.089844 203.574219 144.097656 200.363281 C 149.398438 196.980469 155.761719 195.257812 162.375 195.0625 C 159.9375 198.0625 156.726562 200.847656 153.460938 203.011719 C 149.339844 205.757812 145.199219 207.519531 142.628906 207.480469 Z M 163.980469 139.066406 C 162.472656 149.027344 168.875 156.570312 176.902344 162.066406 L 178.664062 163.265625 L 178.699219 161.136719 C 178.875 153.265625 177.039062 145.605469 173.035156 139.320312 C 168.644531 132.433594 161.5625 125.875 153.960938 123.265625 C 150.25 135.800781 152.742188 154.949219 171.640625 163.535156 C 160.074219 155.644531 153.285156 143.070312 156.882812 129.027344 C 163.1875 131.464844 167.890625 135.527344 171.078125 140.539062 C 174.464844 145.835938 176.1875 152.203125 176.398438 158.816406 C 173.402344 156.378906 170.617188 153.167969 168.449219 149.898438 C 165.683594 145.777344 163.921875 141.640625 163.980469 139.066406 Z M 189.84375 126.785156 C 182.742188 135.683594 184.734375 146.667969 189.492188 156.570312 L 190.539062 158.71875 L 191.777344 156.667969 C 196.378906 149.066406 198.914062 140.539062 198.546875 132.144531 C 198.140625 122.933594 194.910156 112.53125 188.972656 105.683594 C 178.273438 115.835938 169.882812 135.972656 183.515625 155.042969 C 176.671875 140.789062 177.132812 124.675781 188.566406 112.972656 C 193.363281 118.914062 195.644531 125.546875 195.953125 132.257812 C 196.265625 139.335938 194.367188 146.511719 190.828125 153.109375 C 189.261719 149.027344 188.371094 144.308594 188.082031 139.898438 C 187.714844 134.308594 188.332031 129.28125 189.84375 126.785156 Z M 244.660156 186.28125 C 235.78125 179.183594 224.773438 181.175781 214.890625 185.933594 L 212.722656 186.976562 L 214.773438 188.214844 C 222.375 192.820312 230.90625 195.355469 239.320312 194.984375 C 248.507812 194.578125 258.914062 191.351562 265.761719 185.410156 C 255.605469 174.714844 235.488281 166.320312 216.398438 179.957031 C 230.652344 173.109375 246.785156 173.574219 258.488281 185.007812 C 252.53125 189.804688 245.914062 192.085938 239.203125 192.394531 C 232.125 192.703125 224.929688 190.808594 218.332031 187.269531 C 222.414062 185.703125 227.132812 184.8125 231.546875 184.523438 C 237.132812 184.15625 242.164062 184.773438 244.660156 186.28125 Z M 185.179688 241.097656 C 192.28125 232.21875 190.285156 221.214844 185.507812 211.332031 L 184.484375 209.164062 L 183.246094 211.214844 C 178.625 218.816406 176.089844 227.347656 176.476562 235.761719 C 176.882812 244.949219 180.09375 255.351562 186.050781 262.199219 C 196.746094 252.046875 205.121094 231.929688 191.488281 212.839844 C 198.351562 227.09375 197.886719 243.226562 186.4375 254.929688 C 181.660156 248.972656 179.359375 242.355469 179.066406 235.644531 C 178.738281 228.5625 180.65625 221.371094 184.195312 214.773438 C 185.742188 218.855469 186.652344 223.574219 186.921875 227.984375 C 187.289062 233.574219 186.6875 238.605469 185.179688 241.097656 Z M 130.34375 181.621094 C 132.839844 183.128906 137.871094 183.726562 143.460938 183.363281 C 147.871094 183.089844 152.589844 182.179688 156.671875 180.632812 C 150.074219 177.09375 142.898438 175.179688 135.820312 175.507812 C 129.105469 175.796875 122.472656 178.101562 116.535156 182.878906 C 128.238281 194.328125 144.347656 194.792969 158.605469 187.925781 C 139.53125 201.5625 119.398438 193.1875 109.242188 182.492188 C 116.089844 176.535156 126.496094 173.324219 135.703125 172.917969 C 144.097656 172.527344 152.628906 175.0625 160.230469 179.6875 L 162.277344 180.925781 L 160.132812 181.96875 C 150.230469 186.726562 139.242188 188.71875 130.34375 181.621094 " fill-opacity="1" fill-rule="nonzero"/></g><g fill="#000000" fill-opacity="1"><g transform="translate(86.888718, 195.749987)"><g><path d="M 25.609375 -10.03125 L 18.046875 -10.03125 C 17.625 -10.03125 17.625 -9.46875 18.015625 -9.390625 C 19.265625 -9.203125 20.828125 -9.3125 20.828125 -7.296875 C 20.828125 -6.3125 20.828125 -5.4375 20.828125 -3.765625 C 20.828125 -3 20.515625 -2.546875 19.765625 -2.015625 C 18.46875 -1.21875 16.609375 -0.609375 13.828125 -0.609375 C 0.453125 -0.609375 0.421875 -23.5625 13.828125 -23.5625 C 15.625 -23.5625 17.09375 -23.453125 18.09375 -22.953125 C 20.328125 -21.8125 19.953125 -20.59375 20.484375 -19.640625 C 20.90625 -18.84375 21.46875 -18.546875 22 -18.546875 C 23.109375 -18.546875 24.046875 -19.90625 22.84375 -21.359375 C 22.15625 -22.15625 20.703125 -22.953125 19.5625 -23.453125 C 19.34375 -23.5625 19.15625 -23.640625 19 -23.671875 L 18.96875 -23.671875 C 17.484375 -24.203125 15.765625 -24.546875 13.828125 -24.546875 C -3.578125 -24.546875 -3.578125 0.34375 13.828125 0.34375 C 19.109375 0.34375 20.515625 -1.296875 23.296875 -1.296875 C 23.375 -1.296875 23.484375 -1.375 23.484375 -1.484375 L 23.484375 -7.0625 C 23.484375 -9.078125 24.390625 -9.203125 25.65625 -9.390625 C 26.03125 -9.46875 26.03125 -10.03125 25.609375 -10.03125 Z M 25.609375 -10.03125 "/></g></g></g><g fill="#000000" fill-opacity="1"><g transform="translate(114.851259, 195.749987)"><g><path d="M 27.171875 -0.609375 C 25.921875 -0.796875 24.78125 -0.53125 23.984375 -2.203125 L 14.8125 -24.015625 C 13.484375 -24.28125 13.265625 -23.78125 12.765625 -22.609375 C 9.953125 -15.890625 7.140625 -9.15625 4.328125 -2.4375 C 3.53125 -0.5 2.359375 -0.796875 1.0625 -0.609375 C 0.6875 -0.53125 0.71875 -0.15625 1.109375 -0.15625 C 2.09375 -0.15625 2.78125 -0.15625 3.578125 -0.15625 L 3.578125 -0.1875 L 4.453125 -0.1875 L 4.453125 -0.15625 C 5.28125 -0.15625 6.796875 -0.15625 7.796875 -0.15625 C 8.171875 -0.15625 8.203125 -0.53125 7.828125 -0.609375 C 6.578125 -0.796875 4.640625 -0.53125 5.3125 -2.203125 L 6.765625 -5.703125 L 19.34375 -5.703125 C 19.84375 -4.515625 20.328125 -3.375 20.78125 -2.203125 C 21.46875 -0.53125 20.171875 -0.796875 18.921875 -0.609375 C 18.546875 -0.53125 18.546875 -0.15625 18.96875 -0.15625 C 19.953125 -0.15625 20.828125 -0.15625 21.65625 -0.15625 L 21.65625 -0.1875 L 24.625 -0.1875 L 24.625 -0.15625 C 25.453125 -0.15625 26.140625 -0.15625 27.125 -0.15625 C 27.515625 -0.15625 27.515625 -0.53125 27.171875 -0.609375 Z M 7.140625 -6.53125 L 12.65625 -19.640625 C 12.875 -20.21875 13.140625 -20.21875 13.40625 -19.640625 C 15.234375 -15.28125 17.09375 -10.90625 18.96875 -6.53125 Z M 7.140625 -6.53125 "/></g></g></g><g fill="#000000" fill-opacity="1"><g transform="translate(144.2955, 195.749987)"><g><path d="M 22.953125 -8.390625 C 22.265625 -8.390625 21.734375 -7.9375 21.734375 -7.21875 C 21.734375 -6.390625 22.453125 -5.890625 23.140625 -5.09375 C 24.28125 -3.84375 23.25 -1.640625 21.203125 -1.640625 C 17.671875 -1.640625 16.71875 -6.921875 12.765625 -7.90625 C 17.515625 -8.328125 22.421875 -10.609375 22.421875 -15.921875 C 22.421875 -21.171875 17.5625 -23.859375 12.125 -23.859375 L 1.109375 -23.859375 C 0.6875 -23.859375 0.6875 -23.296875 1.0625 -23.21875 C 2.3125 -23.03125 3.453125 -23.328125 3.453125 -21.3125 L 3.453125 -2.515625 C 3.453125 -0.5 2.3125 -0.796875 1.0625 -0.609375 C 0.6875 -0.53125 0.6875 0.03125 1.109375 0.03125 L 8.625 0.03125 C 9 0.03125 9 -0.53125 8.65625 -0.609375 C 7.375 -0.796875 6.265625 -0.5 6.265625 -2.515625 L 6.265625 -21.390625 C 6.265625 -22.71875 7.0625 -22.984375 8.015625 -22.984375 L 7.90625 -23.03125 C 8.125 -23.03125 8.4375 -23.03125 9.15625 -23.03125 C 15.359375 -23.03125 19.1875 -20.75 19.1875 -15.890625 C 19.1875 -11.015625 14.78125 -8.46875 9.15625 -8.46875 C 8.546875 -8.46875 8.8125 -8.515625 8.25 -8.59375 C 7.59375 -8.65625 7.59375 -7.796875 8.28125 -7.828125 C 13.1875 -7.640625 14.859375 0.34375 19.953125 0.34375 C 23.25 0.34375 24.515625 -2.3125 24.546875 -4.984375 C 24.59375 -6.125 24.625 -8.390625 22.953125 -8.390625 Z M 22.953125 -8.390625 "/></g></g></g><g fill="#000000" fill-opacity="1"><g transform="translate(170.890326, 195.749987)"><g><path d="M 11.28125 -24.015625 L 1.109375 -24.015625 C 0.6875 -24.015625 0.6875 -23.453125 1.0625 -23.375 C 2.3125 -23.140625 3.421875 -23.484375 3.421875 -21.46875 C 3.421875 -16.453125 3.421875 -7.71875 3.421875 -2.703125 C 3.421875 -0.71875 2.3125 -1.03125 1.0625 -0.796875 C 0.6875 -0.765625 0.6875 -0.1875 1.109375 -0.1875 L 11.28125 -0.1875 C 29.875 -0.1875 29.90625 -24.015625 11.28125 -24.015625 Z M 10.640625 -0.984375 L 7.984375 -0.984375 C 7.03125 -0.984375 6.234375 -1.296875 6.234375 -2.625 L 6.234375 -21.546875 C 6.234375 -22.875 6.984375 -23.140625 7.9375 -23.140625 L 10.640625 -23.140625 C 26.21875 -23.140625 26.453125 -0.984375 10.640625 -0.984375 Z M 10.640625 -0.984375 "/></g></g></g><g fill="#000000" fill-opacity="1"><g transform="translate(198.169011, 195.749987)"><g><path d="M 20.25 -4.375 C 19.6875 -1.90625 19.15625 -1.03125 15.203125 -1.03125 L 7.640625 -1.03125 C 6.84375 -1.109375 6.234375 -1.484375 6.234375 -2.625 L 6.234375 -11.140625 L 13.796875 -11.140625 C 16.15625 -11.140625 16.6875 -9.921875 16.765625 -8.734375 C 16.796875 -8.359375 17.40625 -8.390625 17.40625 -8.78125 L 17.40625 -14.328125 C 17.40625 -14.75 16.796875 -14.75 16.765625 -14.359375 C 16.6875 -13.21875 16.15625 -11.96875 13.796875 -11.96875 L 6.234375 -11.96875 L 6.234375 -21.546875 C 6.234375 -22.875 6.984375 -23.140625 7.9375 -23.140625 L 13.90625 -23.140625 C 17.859375 -23.140625 18.8125 -22.265625 19.375 -19.796875 C 19.453125 -19.453125 20.0625 -19.53125 20.0625 -19.84375 L 19.84375 -23.828125 C 19.84375 -23.9375 19.71875 -24.015625 19.5625 -24.015625 L 1.109375 -24.015625 C 0.6875 -24.015625 0.6875 -23.453125 1.0625 -23.375 C 2.3125 -23.140625 3.421875 -23.484375 3.421875 -21.46875 L 3.421875 -2.703125 C 3.421875 -0.71875 2.3125 -1.03125 1.0625 -0.796875 C 0.6875 -0.765625 0.6875 -0.1875 1.109375 -0.1875 L 20.4375 -0.1875 C 20.5625 -0.1875 20.703125 -0.234375 20.703125 -0.375 L 20.90625 -4.328125 C 20.90625 -4.671875 20.328125 -4.71875 20.25 -4.375 Z M 20.25 -4.375 "/></g></g></g><g fill="#000000" fill-opacity="1"><g transform="translate(221.078582, 195.749987)"><g><path d="M 25.53125 -23.859375 L 18.96875 -23.859375 C 18.578125 -23.859375 18.546875 -23.296875 18.921875 -23.21875 C 20.171875 -23.03125 21.625 -23.296875 21.734375 -21.515625 C 21.734375 -15.65625 21.734375 -9.921875 21.734375 -4.03125 C 21.734375 -3.53125 21.390625 -3.375 21.09375 -3.84375 C 16.53125 -10.1875 11.96875 -16.53125 7.453125 -22.84375 C 6.921875 -23.5625 6.578125 -23.859375 5.4375 -23.859375 L 1.515625 -23.859375 C 1.140625 -23.859375 1.109375 -23.296875 1.484375 -23.21875 C 2.734375 -23.03125 3.796875 -23.296875 3.875 -21.515625 L 3.6875 -2.625 C 3.6875 -0.5625 2.359375 -0.796875 1.0625 -0.609375 C 0.6875 -0.53125 0.6875 0.03125 1.109375 0.03125 L 7.671875 0.03125 C 8.0625 0.03125 8.09375 -0.53125 7.71875 -0.609375 C 6.421875 -0.796875 5.09375 -0.53125 5.09375 -2.515625 L 4.90625 -20.96875 L 19.53125 -0.640625 C 19.875 -0.1875 20.171875 0.03125 20.859375 0.03125 C 21.3125 0.03125 21.78125 0.03125 22.1875 0.03125 C 22.578125 0.03125 22.71875 -0.15625 22.71875 -0.53125 L 22.765625 -21.3125 C 22.765625 -23.328125 24.28125 -23.03125 25.578125 -23.21875 C 25.953125 -23.296875 25.953125 -23.859375 25.53125 -23.859375 Z M 25.53125 -23.859375 "/></g></g></g><g fill="#000000" fill-opacity="1"><g transform="translate(248.965142, 195.749987)"><g><path d="M 8.625 -0.796875 C 7.328125 -1.03125 6.234375 -0.71875 6.234375 -2.703125 L 6.234375 -21.46875 C 6.234375 -23.484375 7.328125 -23.140625 8.625 -23.375 C 9 -23.453125 8.96875 -24.015625 8.59375 -24.015625 L 1.109375 -24.015625 C 0.6875 -24.015625 0.6875 -23.453125 1.0625 -23.375 C 2.3125 -23.140625 3.421875 -23.484375 3.421875 -21.46875 L 3.421875 -2.703125 C 3.421875 -0.71875 2.3125 -1.03125 1.0625 -0.796875 C 0.6875 -0.765625 0.6875 -0.1875 1.109375 -0.1875 L 8.59375 -0.1875 C 8.96875 -0.1875 9 -0.765625 8.625 -0.796875 Z M 8.625 -0.796875 "/></g></g></g><g fill="#000000" fill-opacity="1"><g transform="translate(259.907158, 195.749987)"><g><path d="M 27.171875 -0.609375 C 25.921875 -0.796875 24.78125 -0.53125 23.984375 -2.203125 L 14.8125 -24.015625 C 13.484375 -24.28125 13.265625 -23.78125 12.765625 -22.609375 C 9.953125 -15.890625 7.140625 -9.15625 4.328125 -2.4375 C 3.53125 -0.5 2.359375 -0.796875 1.0625 -0.609375 C 0.6875 -0.53125 0.71875 -0.15625 1.109375 -0.15625 C 2.09375 -0.15625 2.78125 -0.15625 3.578125 -0.15625 L 3.578125 -0.1875 L 4.453125 -0.1875 L 4.453125 -0.15625 C 5.28125 -0.15625 6.796875 -0.15625 7.796875 -0.15625 C 8.171875 -0.15625 8.203125 -0.53125 7.828125 -0.609375 C 6.578125 -0.796875 4.640625 -0.53125 5.3125 -2.203125 L 6.765625 -5.703125 L 19.34375 -5.703125 C 19.84375 -4.515625 20.328125 -3.375 20.78125 -2.203125 C 21.46875 -0.53125 20.171875 -0.796875 18.921875 -0.609375 C 18.546875 -0.53125 18.546875 -0.15625 18.96875 -0.15625 C 19.953125 -0.15625 20.828125 -0.15625 21.65625 -0.15625 L 21.65625 -0.1875 L 24.625 -0.1875 L 24.625 -0.15625 C 25.453125 -0.15625 26.140625 -0.15625 27.125 -0.15625 C 27.515625 -0.15625 27.515625 -0.53125 27.171875 -0.609375 Z M 7.140625 -6.53125 L 12.65625 -19.640625 C 12.875 -20.21875 13.140625 -20.21875 13.40625 -19.640625 C 15.234375 -15.28125 17.09375 -10.90625 18.96875 -6.53125 Z M 7.140625 -6.53125 "/></g></g></g></svg>